# xmcd
#
# Track frame offsets:
#	150
#	14097
#	32920
#	54760
#	72640
#	91795
#	120725
#	133640
#	154197
#	166317
#	179097
#	197480
#	210530
#	224535
#
# Disc length: 3279 seconds
#
# Revision: 1
# Processed by: cddbd v1.5.2PL0 Copyright (c) Steve Scherf et al.
# Submitted via: audiograbber 1.83.01
#
DISCID=cd0ccd0e
DTITLE=Blue Hearts - Lullaby For The Lost
DYEAR=1994
DGENRE=Country
TTITLE0=Hurricane
TTITLE1=No Guarantee
TTITLE2=Along The Quay
TTITLE3=Lure Of The Underground
TTITLE4=I Had To Let You Go
TTITLE5=Teenage King
TTITLE6=I'm Not Strong
TTITLE7=Another World
TTITLE8=Bad Blue Heart
TTITLE9=All Roads Lead You Home
TTITLE10=Each And Every Day
TTITLE11=Fire Girl
TTITLE12=Angel With A Cold Black Soul
TTITLE13=Lullaby For The Lost
EXTD=Blue Hearts - Lullaby For The Lost
EXTT0=
EXTT1=
EXTT2=
EXTT3=
EXTT4=
EXTT5=
EXTT6=
EXTT7=
EXTT8=
EXTT9=
EXTT10=
EXTT11=
EXTT12=
EXTT13=
PLAYORDER=
